<mxfile host="app.diagrams.net" modified="2021-07-01T09:47:21.593Z" agent="5.0 (Macintosh; Intel Mac OS X 10_15_7) AppleWebKit/537.36 (KHTML, like Gecko) Chrome/91.0.4472.114 Safari/537.36" etag="C5F7XdmQFF5OHPx0AL2l" version="14.8.3" type="github">
  <diagram id="nMES7Oahk3-mXJZbOVMn" name="Page-1">
    <mxGraphModel dx="1746" dy="1421" grid="1" gridSize="10" guides="1" tooltips="1" connect="1" arrows="1" fold="1" page="0" pageScale="1" pageWidth="827" pageHeight="1169" math="0" shadow="0">
      <root>
        <mxCell id="0" />
        <mxCell id="1" parent="0" />
        <mxCell id="OBoU4_cc1wNnT7vXtte2-5" style="edgeStyle=orthogonalEdgeStyle;rounded=0;orthogonalLoop=1;jettySize=auto;html=1;entryX=0;entryY=0.5;entryDx=0;entryDy=0;" parent="1" source="OBoU4_cc1wNnT7vXtte2-1" target="OBoU4_cc1wNnT7vXtte2-2" edge="1">
          <mxGeometry relative="1" as="geometry" />
        </mxCell>
        <mxCell id="OBoU4_cc1wNnT7vXtte2-13" value="1" style="edgeLabel;html=1;align=center;verticalAlign=middle;resizable=0;points=[];" parent="OBoU4_cc1wNnT7vXtte2-5" vertex="1" connectable="0">
          <mxGeometry x="0.025" y="1" relative="1" as="geometry">
            <mxPoint as="offset" />
          </mxGeometry>
        </mxCell>
        <mxCell id="OBoU4_cc1wNnT7vXtte2-1" value="&lt;font style=&quot;font-size: 20px&quot;&gt;在线课堂&lt;/font&gt;" style="rounded=0;whiteSpace=wrap;html=1;gradientColor=#97d077;fillColor=#d5e8d4;strokeColor=#82b366;" parent="1" vertex="1">
          <mxGeometry x="80" y="120" width="120" height="60" as="geometry" />
        </mxCell>
        <mxCell id="OBoU4_cc1wNnT7vXtte2-7" style="edgeStyle=orthogonalEdgeStyle;rounded=0;orthogonalLoop=1;jettySize=auto;html=1;exitX=0.25;exitY=1;exitDx=0;exitDy=0;entryX=0.25;entryY=0;entryDx=0;entryDy=0;" parent="1" source="OBoU4_cc1wNnT7vXtte2-2" edge="1">
          <mxGeometry relative="1" as="geometry">
            <mxPoint x="310" y="320" as="targetPoint" />
          </mxGeometry>
        </mxCell>
        <mxCell id="OBoU4_cc1wNnT7vXtte2-14" value="2" style="edgeLabel;html=1;align=center;verticalAlign=middle;resizable=0;points=[];" parent="OBoU4_cc1wNnT7vXtte2-7" vertex="1" connectable="0">
          <mxGeometry x="0.0714" y="-2" relative="1" as="geometry">
            <mxPoint as="offset" />
          </mxGeometry>
        </mxCell>
        <mxCell id="OBoU4_cc1wNnT7vXtte2-10" style="edgeStyle=orthogonalEdgeStyle;rounded=0;orthogonalLoop=1;jettySize=auto;html=1;exitX=0.75;exitY=1;exitDx=0;exitDy=0;entryX=0.75;entryY=0;entryDx=0;entryDy=0;" parent="1" source="OBoU4_cc1wNnT7vXtte2-2" edge="1">
          <mxGeometry relative="1" as="geometry">
            <mxPoint x="370" y="320" as="targetPoint" />
          </mxGeometry>
        </mxCell>
        <mxCell id="OBoU4_cc1wNnT7vXtte2-18" value="5" style="edgeLabel;html=1;align=center;verticalAlign=middle;resizable=0;points=[];" parent="OBoU4_cc1wNnT7vXtte2-10" vertex="1" connectable="0">
          <mxGeometry x="0.0429" y="2" relative="1" as="geometry">
            <mxPoint as="offset" />
          </mxGeometry>
        </mxCell>
        <mxCell id="OBoU4_cc1wNnT7vXtte2-2" value="&lt;font style=&quot;font-size: 20px&quot;&gt;服务&lt;/font&gt;" style="rounded=0;whiteSpace=wrap;html=1;fillColor=#e51400;strokeColor=#B20000;fontColor=#ffffff;" parent="1" vertex="1">
          <mxGeometry x="280" y="120" width="120" height="60" as="geometry" />
        </mxCell>
        <mxCell id="OBoU4_cc1wNnT7vXtte2-16" style="edgeStyle=orthogonalEdgeStyle;rounded=0;orthogonalLoop=1;jettySize=auto;html=1;exitX=0;exitY=0.5;exitDx=0;exitDy=0;entryX=1;entryY=0.5;entryDx=0;entryDy=0;" parent="1" source="OBoU4_cc1wNnT7vXtte2-3" target="OBoU4_cc1wNnT7vXtte2-2" edge="1">
          <mxGeometry relative="1" as="geometry" />
        </mxCell>
        <mxCell id="OBoU4_cc1wNnT7vXtte2-17" value="4" style="edgeLabel;html=1;align=center;verticalAlign=middle;resizable=0;points=[];" parent="OBoU4_cc1wNnT7vXtte2-16" vertex="1" connectable="0">
          <mxGeometry x="-0.05" relative="1" as="geometry">
            <mxPoint as="offset" />
          </mxGeometry>
        </mxCell>
        <mxCell id="OBoU4_cc1wNnT7vXtte2-3" value="&lt;font style=&quot;font-size: 20px&quot;&gt;学生端&lt;/font&gt;" style="rounded=0;whiteSpace=wrap;html=1;gradientColor=#7ea6e0;fillColor=#dae8fc;strokeColor=#6c8ebf;" parent="1" vertex="1">
          <mxGeometry x="480" y="120" width="120" height="60" as="geometry" />
        </mxCell>
        <mxCell id="OBoU4_cc1wNnT7vXtte2-11" style="edgeStyle=orthogonalEdgeStyle;rounded=0;orthogonalLoop=1;jettySize=auto;html=1;entryX=0.5;entryY=1;entryDx=0;entryDy=0;" parent="1" target="OBoU4_cc1wNnT7vXtte2-1" edge="1">
          <mxGeometry relative="1" as="geometry">
            <mxPoint x="280" y="350" as="sourcePoint" />
          </mxGeometry>
        </mxCell>
        <mxCell id="OBoU4_cc1wNnT7vXtte2-19" value="6" style="edgeLabel;html=1;align=center;verticalAlign=middle;resizable=0;points=[];" parent="OBoU4_cc1wNnT7vXtte2-11" vertex="1" connectable="0">
          <mxGeometry x="0.4" y="2" relative="1" as="geometry">
            <mxPoint as="offset" />
          </mxGeometry>
        </mxCell>
        <mxCell id="OBoU4_cc1wNnT7vXtte2-12" style="edgeStyle=orthogonalEdgeStyle;rounded=0;orthogonalLoop=1;jettySize=auto;html=1;entryX=0.5;entryY=1;entryDx=0;entryDy=0;" parent="1" target="OBoU4_cc1wNnT7vXtte2-3" edge="1">
          <mxGeometry relative="1" as="geometry">
            <mxPoint x="400" y="350" as="sourcePoint" />
          </mxGeometry>
        </mxCell>
        <mxCell id="OBoU4_cc1wNnT7vXtte2-15" value="3" style="edgeLabel;html=1;align=center;verticalAlign=middle;resizable=0;points=[];" parent="OBoU4_cc1wNnT7vXtte2-12" vertex="1" connectable="0">
          <mxGeometry x="0.2258" y="1" relative="1" as="geometry">
            <mxPoint as="offset" />
          </mxGeometry>
        </mxCell>
        <mxCell id="OBoU4_cc1wNnT7vXtte2-20" value="班级纬度list" style="ellipse;whiteSpace=wrap;html=1;aspect=fixed;fillColor=#e51400;strokeColor=#B20000;fontColor=#ffffff;" parent="1" vertex="1">
          <mxGeometry x="-40" y="680" width="160" height="160" as="geometry" />
        </mxCell>
        <mxCell id="OBoU4_cc1wNnT7vXtte2-37" style="edgeStyle=orthogonalEdgeStyle;rounded=0;orthogonalLoop=1;jettySize=auto;html=1;entryX=1;entryY=0.5;entryDx=0;entryDy=0;" parent="1" source="OBoU4_cc1wNnT7vXtte2-22" target="OBoU4_cc1wNnT7vXtte2-32" edge="1">
          <mxGeometry relative="1" as="geometry">
            <Array as="points">
              <mxPoint x="340" y="1000" />
              <mxPoint x="235" y="1000" />
              <mxPoint x="235" y="1065" />
            </Array>
          </mxGeometry>
        </mxCell>
        <mxCell id="OBoU4_cc1wNnT7vXtte2-39" style="edgeStyle=orthogonalEdgeStyle;rounded=0;orthogonalLoop=1;jettySize=auto;html=1;entryX=1;entryY=1;entryDx=0;entryDy=0;" parent="1" source="OBoU4_cc1wNnT7vXtte2-22" target="OBoU4_cc1wNnT7vXtte2-20" edge="1">
          <mxGeometry relative="1" as="geometry">
            <Array as="points">
              <mxPoint x="340" y="840" />
              <mxPoint x="97" y="840" />
            </Array>
          </mxGeometry>
        </mxCell>
        <mxCell id="OBoU4_cc1wNnT7vXtte2-22" value="正课3" style="rounded=0;whiteSpace=wrap;html=1;fillColor=#6d8764;strokeColor=#3A5431;fontColor=#ffffff;" parent="1" vertex="1">
          <mxGeometry x="280" y="880" width="120" height="60" as="geometry" />
        </mxCell>
        <mxCell id="OBoU4_cc1wNnT7vXtte2-28" style="edgeStyle=orthogonalEdgeStyle;rounded=0;orthogonalLoop=1;jettySize=auto;html=1;" parent="1" source="OBoU4_cc1wNnT7vXtte2-23" target="OBoU4_cc1wNnT7vXtte2-20" edge="1">
          <mxGeometry relative="1" as="geometry" />
        </mxCell>
        <mxCell id="OBoU4_cc1wNnT7vXtte2-35" style="edgeStyle=orthogonalEdgeStyle;rounded=0;orthogonalLoop=1;jettySize=auto;html=1;entryX=0.5;entryY=0;entryDx=0;entryDy=0;" parent="1" source="OBoU4_cc1wNnT7vXtte2-23" target="OBoU4_cc1wNnT7vXtte2-32" edge="1">
          <mxGeometry relative="1" as="geometry" />
        </mxCell>
        <mxCell id="OBoU4_cc1wNnT7vXtte2-23" value="正课2" style="rounded=0;whiteSpace=wrap;html=1;fillColor=#6d8764;strokeColor=#3A5431;fontColor=#ffffff;" parent="1" vertex="1">
          <mxGeometry x="130" y="880" width="120" height="60" as="geometry" />
        </mxCell>
        <mxCell id="OBoU4_cc1wNnT7vXtte2-27" style="edgeStyle=orthogonalEdgeStyle;rounded=0;orthogonalLoop=1;jettySize=auto;html=1;entryX=0.375;entryY=0.988;entryDx=0;entryDy=0;entryPerimeter=0;" parent="1" source="OBoU4_cc1wNnT7vXtte2-24" target="OBoU4_cc1wNnT7vXtte2-20" edge="1">
          <mxGeometry relative="1" as="geometry" />
        </mxCell>
        <mxCell id="OBoU4_cc1wNnT7vXtte2-34" style="edgeStyle=orthogonalEdgeStyle;rounded=0;orthogonalLoop=1;jettySize=auto;html=1;entryX=0.25;entryY=0;entryDx=0;entryDy=0;" parent="1" source="OBoU4_cc1wNnT7vXtte2-24" target="OBoU4_cc1wNnT7vXtte2-32" edge="1">
          <mxGeometry relative="1" as="geometry" />
        </mxCell>
        <mxCell id="OBoU4_cc1wNnT7vXtte2-24" value="正课1" style="rounded=0;whiteSpace=wrap;html=1;fillColor=#6d8764;strokeColor=#3A5431;fontColor=#ffffff;" parent="1" vertex="1">
          <mxGeometry x="-40" y="880" width="120" height="60" as="geometry" />
        </mxCell>
        <mxCell id="OBoU4_cc1wNnT7vXtte2-33" style="edgeStyle=orthogonalEdgeStyle;rounded=0;orthogonalLoop=1;jettySize=auto;html=1;entryX=0;entryY=0.5;entryDx=0;entryDy=0;" parent="1" source="OBoU4_cc1wNnT7vXtte2-25" target="OBoU4_cc1wNnT7vXtte2-32" edge="1">
          <mxGeometry relative="1" as="geometry">
            <Array as="points">
              <mxPoint x="-140" y="1000" />
              <mxPoint x="-25" y="1000" />
              <mxPoint x="-25" y="1065" />
            </Array>
          </mxGeometry>
        </mxCell>
        <mxCell id="OBoU4_cc1wNnT7vXtte2-40" style="edgeStyle=orthogonalEdgeStyle;rounded=0;orthogonalLoop=1;jettySize=auto;html=1;entryX=0;entryY=1;entryDx=0;entryDy=0;" parent="1" source="OBoU4_cc1wNnT7vXtte2-25" target="OBoU4_cc1wNnT7vXtte2-20" edge="1">
          <mxGeometry relative="1" as="geometry">
            <Array as="points">
              <mxPoint x="-140" y="840" />
              <mxPoint x="-17" y="840" />
            </Array>
          </mxGeometry>
        </mxCell>
        <mxCell id="OBoU4_cc1wNnT7vXtte2-25" value="补课" style="rounded=0;whiteSpace=wrap;html=1;fillColor=#647687;strokeColor=#314354;fontColor=#ffffff;" parent="1" vertex="1">
          <mxGeometry x="-200" y="880" width="120" height="50" as="geometry" />
        </mxCell>
        <mxCell id="OBoU4_cc1wNnT7vXtte2-42" style="edgeStyle=orthogonalEdgeStyle;rounded=0;orthogonalLoop=1;jettySize=auto;html=1;entryX=0.5;entryY=0;entryDx=0;entryDy=0;" parent="1" source="OBoU4_cc1wNnT7vXtte2-32" target="OBoU4_cc1wNnT7vXtte2-41" edge="1">
          <mxGeometry relative="1" as="geometry" />
        </mxCell>
        <mxCell id="OBoU4_cc1wNnT7vXtte2-32" value="都包括课程信息和学员list" style="rounded=0;whiteSpace=wrap;html=1;fillColor=#b1ddf0;strokeColor=#10739e;" parent="1" vertex="1">
          <mxGeometry x="30" y="1040" width="160" height="50" as="geometry" />
        </mxCell>
        <mxCell id="OBoU4_cc1wNnT7vXtte2-44" style="edgeStyle=orthogonalEdgeStyle;rounded=0;orthogonalLoop=1;jettySize=auto;html=1;entryX=0.5;entryY=0;entryDx=0;entryDy=0;" parent="1" source="OBoU4_cc1wNnT7vXtte2-41" target="OBoU4_cc1wNnT7vXtte2-43" edge="1">
          <mxGeometry relative="1" as="geometry" />
        </mxCell>
        <mxCell id="OBoU4_cc1wNnT7vXtte2-41" value="分发给dom（TAB页）" style="rounded=0;whiteSpace=wrap;html=1;fillColor=#fad9d5;strokeColor=#ae4132;" parent="1" vertex="1">
          <mxGeometry x="20" y="1160" width="180" height="60" as="geometry" />
        </mxCell>
        <mxCell id="OBoU4_cc1wNnT7vXtte2-45" style="edgeStyle=orthogonalEdgeStyle;rounded=0;orthogonalLoop=1;jettySize=auto;html=1;entryX=0.994;entryY=0.544;entryDx=0;entryDy=0;entryPerimeter=0;gradientColor=#ea6b66;fillColor=#f8cecc;strokeColor=#b85450;" parent="1" source="OBoU4_cc1wNnT7vXtte2-43" target="OBoU4_cc1wNnT7vXtte2-20" edge="1">
          <mxGeometry relative="1" as="geometry">
            <Array as="points">
              <mxPoint x="500" y="1310" />
              <mxPoint x="500" y="767" />
            </Array>
          </mxGeometry>
        </mxCell>
        <mxCell id="OBoU4_cc1wNnT7vXtte2-43" value="数据驱动" style="rounded=0;whiteSpace=wrap;html=1;gradientColor=#d5739d;fillColor=#e6d0de;strokeColor=#996185;" parent="1" vertex="1">
          <mxGeometry x="50" y="1280" width="120" height="60" as="geometry" />
        </mxCell>
        <mxCell id="OBoU4_cc1wNnT7vXtte2-47" value="" style="ellipse;whiteSpace=wrap;html=1;aspect=fixed;fillColor=#f9f7ed;strokeColor=#36393d;" parent="1" vertex="1">
          <mxGeometry x="-400" y="1370" width="770" height="770" as="geometry" />
        </mxCell>
        <mxCell id="OBoU4_cc1wNnT7vXtte2-49" value="&lt;font style=&quot;font-size: 21px&quot;&gt;操作面板&lt;/font&gt;" style="rounded=0;whiteSpace=wrap;html=1;fillColor=#dae8fc;strokeColor=#6c8ebf;" parent="1" vertex="1">
          <mxGeometry x="-340" y="1550" width="120" height="410" as="geometry" />
        </mxCell>
        <mxCell id="OBoU4_cc1wNnT7vXtte2-61" value="" style="ellipse;whiteSpace=wrap;html=1;aspect=fixed;fillColor=#f8cecc;strokeColor=#b85450;" parent="1" vertex="1">
          <mxGeometry x="-210" y="1440" width="580" height="580" as="geometry" />
        </mxCell>
        <mxCell id="OBoU4_cc1wNnT7vXtte2-62" value="" style="ellipse;whiteSpace=wrap;html=1;aspect=fixed;fillColor=#fff2cc;strokeColor=#d6b656;" parent="1" vertex="1">
          <mxGeometry x="-210" y="1550" width="350" height="350" as="geometry" />
        </mxCell>
        <mxCell id="OBoU4_cc1wNnT7vXtte2-64" value="&lt;font style=&quot;font-size: 42px&quot;&gt;IM&lt;/font&gt;" style="text;html=1;strokeColor=none;fillColor=none;align=center;verticalAlign=middle;whiteSpace=wrap;rounded=0;" parent="1" vertex="1">
          <mxGeometry x="60" y="1500" width="130" height="70" as="geometry" />
        </mxCell>
        <mxCell id="OBoU4_cc1wNnT7vXtte2-65" value="客户端UI" style="ellipse;whiteSpace=wrap;html=1;aspect=fixed;fillColor=#d5e8d4;strokeColor=#82b366;" parent="1" vertex="1">
          <mxGeometry x="-40" y="1570" width="140" height="140" as="geometry" />
        </mxCell>
        <mxCell id="OBoU4_cc1wNnT7vXtte2-66" value="在线课堂UI" style="ellipse;whiteSpace=wrap;html=1;aspect=fixed;fillColor=#d5e8d4;strokeColor=#82b366;" parent="1" vertex="1">
          <mxGeometry x="-52.5" y="1740" width="145" height="145" as="geometry" />
        </mxCell>
        <mxCell id="OBoU4_cc1wNnT7vXtte2-67" value="&lt;font style=&quot;font-size: 30px&quot;&gt;在线课堂&lt;/font&gt;" style="text;html=1;strokeColor=none;fillColor=none;align=center;verticalAlign=middle;whiteSpace=wrap;rounded=0;" parent="1" vertex="1">
          <mxGeometry x="370" y="1510" width="160" height="460" as="geometry" />
        </mxCell>
        <mxCell id="OBoU4_cc1wNnT7vXtte2-68" value="融云" style="ellipse;shape=cloud;whiteSpace=wrap;html=1;" parent="1" vertex="1">
          <mxGeometry x="180" y="1650" width="190" height="140" as="geometry" />
        </mxCell>
        <mxCell id="OBoU4_cc1wNnT7vXtte2-70" value="融云" style="ellipse;shape=cloud;whiteSpace=wrap;html=1;gradientColor=#b3b3b3;fillColor=#f5f5f5;strokeColor=#666666;" parent="1" vertex="1">
          <mxGeometry x="280" y="310" width="120" height="80" as="geometry" />
        </mxCell>
        <mxCell id="HiOwO1UaTTyDpOq1LJcf-54" style="edgeStyle=orthogonalEdgeStyle;rounded=0;orthogonalLoop=1;jettySize=auto;html=1;exitX=1;exitY=0.5;exitDx=0;exitDy=0;entryX=0;entryY=0.5;entryDx=0;entryDy=0;" edge="1" parent="1" source="HiOwO1UaTTyDpOq1LJcf-1" target="HiOwO1UaTTyDpOq1LJcf-50">
          <mxGeometry relative="1" as="geometry" />
        </mxCell>
        <mxCell id="HiOwO1UaTTyDpOq1LJcf-55" style="edgeStyle=orthogonalEdgeStyle;rounded=0;orthogonalLoop=1;jettySize=auto;html=1;exitX=1;exitY=0.5;exitDx=0;exitDy=0;entryX=0;entryY=0.5;entryDx=0;entryDy=0;" edge="1" parent="1" source="HiOwO1UaTTyDpOq1LJcf-1" target="HiOwO1UaTTyDpOq1LJcf-52">
          <mxGeometry relative="1" as="geometry" />
        </mxCell>
        <mxCell id="HiOwO1UaTTyDpOq1LJcf-1" value="在线课堂发送CMD请求" style="rounded=0;whiteSpace=wrap;html=1;fillColor=#dae8fc;strokeColor=#6c8ebf;" vertex="1" parent="1">
          <mxGeometry x="-480" y="-480" width="80" height="40" as="geometry" />
        </mxCell>
        <mxCell id="HiOwO1UaTTyDpOq1LJcf-9" value="" style="edgeStyle=orthogonalEdgeStyle;rounded=0;orthogonalLoop=1;jettySize=auto;html=1;" edge="1" parent="1" source="HiOwO1UaTTyDpOq1LJcf-2" target="HiOwO1UaTTyDpOq1LJcf-8">
          <mxGeometry relative="1" as="geometry" />
        </mxCell>
        <mxCell id="HiOwO1UaTTyDpOq1LJcf-34" value="" style="edgeStyle=orthogonalEdgeStyle;rounded=0;orthogonalLoop=1;jettySize=auto;html=1;" edge="1" parent="1" source="HiOwO1UaTTyDpOq1LJcf-2" target="HiOwO1UaTTyDpOq1LJcf-33">
          <mxGeometry relative="1" as="geometry" />
        </mxCell>
        <mxCell id="HiOwO1UaTTyDpOq1LJcf-51" value="" style="edgeStyle=orthogonalEdgeStyle;rounded=0;orthogonalLoop=1;jettySize=auto;html=1;" edge="1" parent="1" source="HiOwO1UaTTyDpOq1LJcf-2" target="HiOwO1UaTTyDpOq1LJcf-50">
          <mxGeometry relative="1" as="geometry" />
        </mxCell>
        <mxCell id="HiOwO1UaTTyDpOq1LJcf-2" value="在线课堂提示发送成功" style="whiteSpace=wrap;html=1;rounded=0;fillColor=#d5e8d4;strokeColor=#82b366;" vertex="1" parent="1">
          <mxGeometry x="-160" y="-560" width="80" height="40" as="geometry" />
        </mxCell>
        <mxCell id="HiOwO1UaTTyDpOq1LJcf-36" value="" style="edgeStyle=orthogonalEdgeStyle;rounded=0;orthogonalLoop=1;jettySize=auto;html=1;" edge="1" parent="1" source="HiOwO1UaTTyDpOq1LJcf-4" target="HiOwO1UaTTyDpOq1LJcf-35">
          <mxGeometry relative="1" as="geometry" />
        </mxCell>
        <mxCell id="HiOwO1UaTTyDpOq1LJcf-53" value="" style="edgeStyle=orthogonalEdgeStyle;rounded=0;orthogonalLoop=1;jettySize=auto;html=1;" edge="1" parent="1" source="HiOwO1UaTTyDpOq1LJcf-4" target="HiOwO1UaTTyDpOq1LJcf-52">
          <mxGeometry relative="1" as="geometry" />
        </mxCell>
        <mxCell id="HiOwO1UaTTyDpOq1LJcf-4" value="在线课堂提示发送失败" style="whiteSpace=wrap;html=1;rounded=0;fillColor=#f8cecc;strokeColor=#b85450;" vertex="1" parent="1">
          <mxGeometry x="-160" y="-360" width="80" height="40" as="geometry" />
        </mxCell>
        <mxCell id="HiOwO1UaTTyDpOq1LJcf-13" value="" style="edgeStyle=orthogonalEdgeStyle;rounded=0;orthogonalLoop=1;jettySize=auto;html=1;" edge="1" parent="1" source="HiOwO1UaTTyDpOq1LJcf-8" target="HiOwO1UaTTyDpOq1LJcf-12">
          <mxGeometry relative="1" as="geometry" />
        </mxCell>
        <mxCell id="HiOwO1UaTTyDpOq1LJcf-8" value="客户端收到消息" style="whiteSpace=wrap;html=1;rounded=0;fillColor=#d5e8d4;strokeColor=#82b366;" vertex="1" parent="1">
          <mxGeometry x="-40" y="-620" width="80" height="40" as="geometry" />
        </mxCell>
        <mxCell id="HiOwO1UaTTyDpOq1LJcf-43" style="edgeStyle=orthogonalEdgeStyle;rounded=0;orthogonalLoop=1;jettySize=auto;html=1;exitX=1;exitY=0.5;exitDx=0;exitDy=0;entryX=0.5;entryY=1;entryDx=0;entryDy=0;" edge="1" parent="1" source="HiOwO1UaTTyDpOq1LJcf-12" target="HiOwO1UaTTyDpOq1LJcf-19">
          <mxGeometry relative="1" as="geometry" />
        </mxCell>
        <mxCell id="HiOwO1UaTTyDpOq1LJcf-44" style="edgeStyle=orthogonalEdgeStyle;rounded=0;orthogonalLoop=1;jettySize=auto;html=1;exitX=1;exitY=0.5;exitDx=0;exitDy=0;entryX=0.5;entryY=0;entryDx=0;entryDy=0;" edge="1" parent="1" source="HiOwO1UaTTyDpOq1LJcf-12" target="HiOwO1UaTTyDpOq1LJcf-22">
          <mxGeometry relative="1" as="geometry" />
        </mxCell>
        <mxCell id="HiOwO1UaTTyDpOq1LJcf-12" value="在线课堂提示客户端开始上传" style="whiteSpace=wrap;html=1;rounded=0;fillColor=#d5e8d4;strokeColor=#82b366;" vertex="1" parent="1">
          <mxGeometry x="80" y="-620" width="80" height="40" as="geometry" />
        </mxCell>
        <mxCell id="HiOwO1UaTTyDpOq1LJcf-25" value="" style="edgeStyle=orthogonalEdgeStyle;rounded=0;orthogonalLoop=1;jettySize=auto;html=1;" edge="1" parent="1" source="HiOwO1UaTTyDpOq1LJcf-19" target="HiOwO1UaTTyDpOq1LJcf-24">
          <mxGeometry relative="1" as="geometry" />
        </mxCell>
        <mxCell id="HiOwO1UaTTyDpOq1LJcf-19" value="上传成功，通知在线课堂" style="whiteSpace=wrap;html=1;rounded=0;fillColor=#d5e8d4;strokeColor=#82b366;" vertex="1" parent="1">
          <mxGeometry x="200" y="-660" width="80" height="40" as="geometry" />
        </mxCell>
        <mxCell id="HiOwO1UaTTyDpOq1LJcf-27" value="" style="edgeStyle=orthogonalEdgeStyle;rounded=0;orthogonalLoop=1;jettySize=auto;html=1;" edge="1" parent="1" source="HiOwO1UaTTyDpOq1LJcf-22" target="HiOwO1UaTTyDpOq1LJcf-26">
          <mxGeometry relative="1" as="geometry" />
        </mxCell>
        <mxCell id="HiOwO1UaTTyDpOq1LJcf-22" value="上传超时，未返回消息" style="whiteSpace=wrap;html=1;rounded=0;fillColor=#f8cecc;strokeColor=#b85450;" vertex="1" parent="1">
          <mxGeometry x="200" y="-570" width="80" height="40" as="geometry" />
        </mxCell>
        <mxCell id="HiOwO1UaTTyDpOq1LJcf-24" value="在线课堂提示成功" style="whiteSpace=wrap;html=1;rounded=0;fillColor=#d5e8d4;strokeColor=#82b366;" vertex="1" parent="1">
          <mxGeometry x="320" y="-660" width="80" height="40" as="geometry" />
        </mxCell>
        <mxCell id="HiOwO1UaTTyDpOq1LJcf-26" value="在线课堂提示客户端上传超时" style="whiteSpace=wrap;html=1;rounded=0;fillColor=#f8cecc;strokeColor=#b85450;" vertex="1" parent="1">
          <mxGeometry x="320" y="-570" width="80" height="40" as="geometry" />
        </mxCell>
        <mxCell id="HiOwO1UaTTyDpOq1LJcf-56" style="edgeStyle=orthogonalEdgeStyle;rounded=0;orthogonalLoop=1;jettySize=auto;html=1;exitX=0.5;exitY=1;exitDx=0;exitDy=0;" edge="1" parent="1" source="HiOwO1UaTTyDpOq1LJcf-29">
          <mxGeometry relative="1" as="geometry">
            <mxPoint x="-380" y="-460" as="targetPoint" />
          </mxGeometry>
        </mxCell>
        <mxCell id="HiOwO1UaTTyDpOq1LJcf-29" value="这里等待x秒" style="shape=hexagon;perimeter=hexagonPerimeter2;whiteSpace=wrap;html=1;fixedSize=1;" vertex="1" parent="1">
          <mxGeometry x="-470" y="-560" width="100" height="40" as="geometry" />
        </mxCell>
        <mxCell id="HiOwO1UaTTyDpOq1LJcf-40" value="" style="edgeStyle=orthogonalEdgeStyle;rounded=0;orthogonalLoop=1;jettySize=auto;html=1;" edge="1" parent="1" source="HiOwO1UaTTyDpOq1LJcf-33" target="HiOwO1UaTTyDpOq1LJcf-39">
          <mxGeometry relative="1" as="geometry" />
        </mxCell>
        <mxCell id="HiOwO1UaTTyDpOq1LJcf-33" value="客户端未收到消息" style="whiteSpace=wrap;html=1;rounded=0;fillColor=#f8cecc;strokeColor=#b85450;" vertex="1" parent="1">
          <mxGeometry x="-40" y="-500" width="80" height="40" as="geometry" />
        </mxCell>
        <mxCell id="HiOwO1UaTTyDpOq1LJcf-35" value="在线课堂提示提示网络超时，发送失败" style="whiteSpace=wrap;html=1;rounded=0;fillColor=#f8cecc;strokeColor=#b85450;" vertex="1" parent="1">
          <mxGeometry y="-360" width="80" height="40" as="geometry" />
        </mxCell>
        <mxCell id="HiOwO1UaTTyDpOq1LJcf-38" style="edgeStyle=orthogonalEdgeStyle;rounded=0;orthogonalLoop=1;jettySize=auto;html=1;" edge="1" parent="1" source="HiOwO1UaTTyDpOq1LJcf-37">
          <mxGeometry relative="1" as="geometry">
            <mxPoint x="-50" y="-540" as="targetPoint" />
          </mxGeometry>
        </mxCell>
        <mxCell id="HiOwO1UaTTyDpOq1LJcf-37" value="这里等待x秒" style="shape=hexagon;perimeter=hexagonPerimeter2;whiteSpace=wrap;html=1;fixedSize=1;" vertex="1" parent="1">
          <mxGeometry x="-160" y="-640" width="90" height="40" as="geometry" />
        </mxCell>
        <mxCell id="HiOwO1UaTTyDpOq1LJcf-39" value="在线课堂提示客户端无响应" style="whiteSpace=wrap;html=1;rounded=0;fillColor=#f8cecc;strokeColor=#b85450;" vertex="1" parent="1">
          <mxGeometry x="80" y="-500" width="80" height="40" as="geometry" />
        </mxCell>
        <mxCell id="HiOwO1UaTTyDpOq1LJcf-67" style="edgeStyle=orthogonalEdgeStyle;rounded=0;orthogonalLoop=1;jettySize=auto;html=1;exitX=0.5;exitY=1;exitDx=0;exitDy=0;" edge="1" parent="1" source="HiOwO1UaTTyDpOq1LJcf-46">
          <mxGeometry relative="1" as="geometry">
            <mxPoint x="180" y="-600" as="targetPoint" />
          </mxGeometry>
        </mxCell>
        <mxCell id="HiOwO1UaTTyDpOq1LJcf-46" value="这里等待x秒" style="shape=hexagon;perimeter=hexagonPerimeter2;whiteSpace=wrap;html=1;fixedSize=1;" vertex="1" parent="1">
          <mxGeometry x="91.25" y="-690" width="97.5" height="40" as="geometry" />
        </mxCell>
        <mxCell id="HiOwO1UaTTyDpOq1LJcf-50" value="成功" style="whiteSpace=wrap;html=1;rounded=0;fillColor=#d5e8d4;strokeColor=#82b366;" vertex="1" parent="1">
          <mxGeometry x="-320" y="-560" width="80" height="40" as="geometry" />
        </mxCell>
        <mxCell id="HiOwO1UaTTyDpOq1LJcf-52" value="失败" style="whiteSpace=wrap;html=1;rounded=0;fillColor=#f8cecc;strokeColor=#b85450;" vertex="1" parent="1">
          <mxGeometry x="-320" y="-360" width="80" height="40" as="geometry" />
        </mxCell>
      </root>
    </mxGraphModel>
  </diagram>
</mxfile>
